<svg width="28" height="28" viewBox="0 0 28 28" fill="none" xmlns="http://www.w3.org/2000/svg">
<path d="M24.2396 0.559998H3.75957C1.99509 0.559998 0.55957 1.99552 0.55957 3.76V24.24C0.55957 26.0045 1.99509 27.44 3.75957 27.44H24.2396C26.004 27.44 27.4396 26.0045 27.4396 24.24V3.76C27.4396 1.99552 26.004 0.559998 24.2396 0.559998ZM21.6834 12.2867C21.5381 12.3002 21.3909 12.3091 21.2418 12.3091C19.5631 12.3091 18.0879 11.4458 17.2297 10.1408C17.2297 13.5642 17.2297 17.4592 17.2297 17.5245C17.2297 20.5382 14.7861 22.9818 11.7724 22.9818C8.75861 22.9818 6.31509 20.5382 6.31509 17.5245C6.31509 14.5107 8.75861 12.0672 11.7724 12.0672C11.8863 12.0672 11.9977 12.0774 12.1097 12.0845V14.7738C11.9977 14.7603 11.8876 14.7398 11.7724 14.7398C10.2338 14.7398 8.98709 15.9866 8.98709 17.5251C8.98709 19.0637 10.2338 20.3104 11.7724 20.3104C13.3109 20.3104 14.6697 19.0982 14.6697 17.5597C14.6697 17.4989 14.6965 5.01952 14.6965 5.01952H17.2668C17.5087 7.31776 19.364 9.13152 21.6834 9.29792V12.2867Z" fill="#FFFFC8"/>
</svg>
