<?xml version="1.0" encoding="UTF-8"?><svg id="a" xmlns="http://www.w3.org/2000/svg" viewBox="0 0 602.26 206.28"><defs><style>.b{fill:#fdffb4;}</style></defs><g><path class="b" d="M75.68,50.76v-9.63c0-6.86-2.77-13.3-7.77-18.16-5.11-4.95-11.93-7.63-19.18-7.51-6.88,.11-13.41,2.9-18.36,7.86-4.95,4.95-7.67,11.4-7.67,18.15v13.77c0,5.11,4.27,9.26,9.55,9.26h33.87c5.07,0,9.63,2.14,12.75,5.55,2.68,2.92,4.31,6.76,4.31,10.99v13.76c0,8.64-3.48,16.88-9.78,23.2-6.34,6.36-14.74,9.95-23.63,10.09h-.59c-9.08,0-17.59-3.42-24.02-9.65-6.42-6.23-9.95-14.5-9.95-23.3v-9.64c0-2,1.67-3.63,3.75-3.63,1.04,0,1.98,.4,2.65,1.06,.68,.66,1.11,1.56,1.11,2.57v9.64c0,6.86,2.74,13.3,7.76,18.15,5,4.86,11.64,7.52,18.73,7.52h.45c6.88-.11,13.41-2.91,18.36-7.86,4.95-4.97,7.69-11.41,7.69-18.15v-13.76c0-5.12-4.28-9.26-9.56-9.26H32.25c-5.07,0-9.63-2.15-12.75-5.55-2.67-2.92-4.31-6.78-4.31-10.99v-13.77c0-8.64,3.48-16.89,9.78-23.2,6.36-6.36,14.74-9.95,23.63-10.09,9.3-.15,18.04,3.28,24.61,9.65,6.42,6.22,9.95,14.5,9.95,23.3v9.63c0,2.01-1.67,3.64-3.75,3.64-1.04,0-1.98-.41-2.66-1.06-.67-.66-1.09-1.57-1.09-2.58Z"/><path class="b" d="M42.08,71.35v30.69c0,2.09-1.68,3.77-3.77,3.77-1.05,0-1.99-.42-2.67-1.11-.69-.68-1.11-1.62-1.11-2.67v-30.69h7.55Z"/><path class="b" d="M63.84,45.11v23.59h-7.55v-23.42c0-3.87-3.04-7.16-6.9-7.27-4.01-.11-7.32,3.11-7.32,7.09v23.59h-7.55v-23.36c0-8.04,6.39-14.77,14.43-14.89,8.19-.11,14.88,6.5,14.88,14.66Z"/><path class="b" d="M63.84,71.35v30.69c0,2.09-1.68,3.77-3.77,3.77s-3.77-1.68-3.77-3.77v-30.69h7.55Z"/><path class="b" d="M52.93,154.96v18.89h-7.5v-18.89c0-2.07,1.68-3.74,3.75-3.74,1.03,0,1.97,.42,2.66,1.09,.68,.68,1.09,1.61,1.09,2.64Z"/><path class="b" d="M62.35,170.1c0,1.03-.42,1.98-1.09,2.66-.69,.68-1.62,1.09-2.66,1.09h-18.84c-2.07,0-3.75-1.67-3.75-3.75s1.68-3.74,3.75-3.74h18.84c2.07,0,3.75,1.67,3.75,3.74Z"/><path class="b" d="M98.36,68.15v26.09c0,26.83-21.59,48.7-48.3,49.18C22.54,143.9,0,121.32,0,93.78v-25.64H.01c.04-2.04,1.71-3.68,3.76-3.68s3.73,1.64,3.76,3.68h.02v25.66c0,23.68,19.55,42.92,43.22,42.03,22.21-.84,40.02-19.17,40.02-41.6v-26.09h.02c.04-2.04,1.71-3.68,3.76-3.68s3.73,1.64,3.76,3.68h.01Z"/><path class="b" d="M98.36,68.15v7.7h-7.55v-7.6s0-.06,.01-.1c.04-2.04,1.71-3.68,3.76-3.68s3.73,1.64,3.76,3.68h.01Z"/><path class="b" d="M7.55,68.24v7.6H0v-7.7H.01c.04-2.04,1.71-3.68,3.76-3.68s3.73,1.64,3.76,3.68c.01,.04,.01,.06,.01,.1Z"/></g><g><g><path class="b" d="M169.75,32.74c-.38-3.36-1.94-5.97-4.69-7.83-2.75-1.86-6.2-2.79-10.37-2.79-2.98,0-5.56,.47-7.74,1.4-2.18,.94-3.86,2.21-5.06,3.83-1.2,1.62-1.79,3.46-1.79,5.52,0,1.73,.41,3.22,1.23,4.47,.82,1.25,1.89,2.3,3.23,3.14,1.34,.84,2.77,1.54,4.31,2.09,1.54,.56,3.02,1.01,4.44,1.37l7.1,1.85c2.32,.57,4.7,1.34,7.14,2.31,2.44,.97,4.7,2.25,6.78,3.83s3.77,3.55,5.06,5.89c1.29,2.34,1.94,5.15,1.94,8.42,0,4.12-1.06,7.78-3.18,10.97-2.12,3.2-5.18,5.72-9.2,7.56-4.01,1.85-8.86,2.77-14.54,2.77s-10.16-.86-14.13-2.59c-3.98-1.73-7.09-4.18-9.34-7.37-2.25-3.18-3.49-6.96-3.73-11.34h11.01c.21,2.63,1.07,4.81,2.57,6.55,1.5,1.74,3.43,3.03,5.79,3.87,2.35,.84,4.94,1.26,7.76,1.26,3.1,0,5.86-.49,8.29-1.47,2.43-.98,4.34-2.35,5.73-4.12,1.4-1.76,2.1-3.83,2.1-6.2,0-2.15-.61-3.92-1.83-5.29-1.22-1.37-2.86-2.51-4.94-3.41-2.07-.9-4.41-1.69-7.01-2.38l-8.59-2.34c-5.82-1.59-10.43-3.92-13.83-6.99-3.4-3.08-5.1-7.15-5.1-12.21,0-4.19,1.14-7.85,3.41-10.97,2.27-3.12,5.35-5.56,9.23-7.3,3.88-1.74,8.26-2.61,13.14-2.61s9.27,.86,13.05,2.59c3.78,1.73,6.75,4.1,8.93,7.12,2.18,3.02,3.31,6.48,3.41,10.39h-10.58Z"/><path class="b" d="M194.42,86.35V13.63h25.92c5.66,0,10.34,1.03,14.06,3.09,3.72,2.06,6.5,4.87,8.34,8.43,1.85,3.56,2.77,7.57,2.77,12.02s-.93,8.49-2.79,12.05c-1.86,3.56-4.65,6.38-8.38,8.45-3.73,2.07-8.41,3.11-14.04,3.11h-17.82v-9.3h16.83c3.57,0,6.47-.62,8.7-1.86,2.22-1.24,3.86-2.94,4.9-5.1,1.04-2.15,1.56-4.6,1.56-7.35s-.52-5.18-1.56-7.31c-1.04-2.13-2.68-3.8-4.92-5.01-2.24-1.21-5.18-1.81-8.82-1.81h-13.78v63.31h-10.97Z"/><path class="b" d="M258.34,86.35V13.63h45.59v9.44h-34.62v22.16h32.24v9.41h-32.24v22.26h35.05v9.44h-46.02Z"/><path class="b" d="M324.77,86.35h-11.65l26.17-72.72h12.68l26.17,72.72h-11.65l-20.56-59.51h-.57l-20.59,59.51Zm1.95-28.48h37.78v9.23h-37.78v-9.23Z"/><path class="b" d="M388.61,86.35V13.63h10.97V48.36h.89l30.5-34.73h13.81l-29.33,32.74,29.44,39.98h-13.21l-23.51-32.49-8.59,9.87v22.62h-10.97Z"/></g><g><path class="b" d="M127.46,174.32v-12.64l26.52-23.22c1.99-1.8,3.68-3.45,5.08-4.95,1.4-1.5,2.46-3.02,3.2-4.54,.73-1.53,1.1-3.19,1.1-4.99,0-2.01-.44-3.73-1.31-5.17-.88-1.43-2.08-2.54-3.62-3.32-1.54-.78-3.3-1.17-5.29-1.17s-3.78,.41-5.29,1.22c-1.52,.82-2.69,2-3.53,3.53-.84,1.54-1.26,3.41-1.26,5.61h-16.65c0-4.95,1.11-9.22,3.34-12.82,2.22-3.6,5.36-6.37,9.39-8.33,4.04-1.95,8.73-2.93,14.08-2.93s10.31,.92,14.38,2.77c4.07,1.85,7.23,4.42,9.46,7.72,2.24,3.3,3.36,7.13,3.36,11.49,0,2.77-.56,5.52-1.67,8.24-1.11,2.72-3.11,5.73-5.98,9.02-2.88,3.29-6.95,7.23-12.23,11.82l-8.7,8.02v.46h29.47v14.17h-53.83Z"/><path class="b" d="M230.5,101.6v72.72h-17.58V101.6h17.58Z"/><path class="b" d="M241.51,101.6h21.77l18.46,45.02h.85l18.46-45.02h21.77v72.72h-17.12v-44.67h-.6l-17.47,44.21h-10.94l-17.47-44.46h-.6v44.92h-17.11V101.6Z"/><path class="b" d="M333.83,174.32V101.6h30.04c5.44,0,10.15,1.06,14.11,3.18,3.96,2.12,7.02,5.07,9.18,8.84s3.23,8.16,3.23,13.16-1.09,9.4-3.28,13.16-5.31,6.66-9.36,8.72-8.85,3.09-14.42,3.09h-18.53v-13.85h15.27c2.65,0,4.87-.46,6.66-1.38,1.79-.92,3.14-2.22,4.07-3.89,.92-1.67,1.38-3.62,1.38-5.84s-.46-4.2-1.38-5.84c-.92-1.65-2.29-2.92-4.08-3.82-1.8-.9-4.01-1.35-6.64-1.35h-8.66v58.55h-17.58Z"/><path class="b" d="M406.01,174.32h-18.89l24.54-72.72h23.4l24.54,72.72h-18.89l-17.08-54.4h-.57l-17.04,54.4Zm-2.52-28.62h39.48v13.35h-39.48v-13.35Z"/><path class="b" d="M530.04,127.95h-17.75c-.24-1.82-.72-3.47-1.46-4.94s-1.7-2.72-2.91-3.76-2.63-1.84-4.28-2.4c-1.65-.56-3.46-.83-5.45-.83-3.53,0-6.56,.86-9.11,2.59-2.54,1.73-4.5,4.23-5.86,7.49-1.36,3.27-2.04,7.22-2.04,11.86s.69,8.87,2.08,12.13,3.34,5.71,5.86,7.35c2.52,1.65,5.51,2.47,8.96,2.47,1.94,0,3.71-.25,5.31-.75s3.01-1.23,4.23-2.18c1.22-.96,2.22-2.13,3.02-3.51s1.34-2.95,1.65-4.71l17.75,.11c-.31,3.22-1.24,6.39-2.79,9.52-1.55,3.12-3.67,5.97-6.37,8.54s-5.98,4.61-9.85,6.12-8.3,2.27-13.3,2.27c-6.58,0-12.47-1.45-17.67-4.35-5.2-2.9-9.3-7.13-12.3-12.69s-4.51-12.33-4.51-20.31,1.53-14.78,4.58-20.35c3.05-5.56,7.18-9.79,12.39-12.68,5.21-2.89,11.04-4.33,17.5-4.33,4.4,0,8.47,.61,12.21,1.83,3.74,1.22,7.03,2.99,9.87,5.33,2.84,2.33,5.15,5.19,6.92,8.58,1.78,3.39,2.88,7.26,3.3,11.61Z"/><path class="b" d="M537.67,115.88v-14.27h61.46v14.27h-22.05v58.44h-17.33v-58.44h-22.08Z"/></g></g></svg>